<?xml version="1.0" encoding="utf-8"?>
<!-- Generator: Adobe Illustrator 15.0.2, SVG Export Plug-In  -->
<!DOCTYPE svg PUBLIC "-//W3C//DTD SVG 1.1//EN" "http://www.w3.org/Graphics/SVG/1.1/DTD/svg11.dtd" [
	<!ENTITY ns_flows "http://ns.adobe.com/Flows/1.0/">
]>
<svg version="1.1"
	 xmlns="http://www.w3.org/2000/svg" xmlns:xlink="http://www.w3.org/1999/xlink" xmlns:a="http://ns.adobe.com/AdobeSVGViewerExtensions/3.0/"
	 x="0px" y="0px" width="200px" height="200px" viewBox="-9.406 -9.639 200 200"
	 overflow="visible" enable-background="new -9.406 -9.639 200 200" xml:space="preserve">
<defs>
</defs>
<circle fill="#969696" cx="91.5" cy="91.5" r="91.5"/>
<path fill="#333333" d="M154.084,119.973c0,2.943-2.387,5.33-5.331,5.33H33.043c-2.944,0-5.331-2.387-5.331-5.33V46.135
	c0-2.944,2.387-5.331,5.331-5.331h115.71c2.944,0,5.331,2.387,5.331,5.331V119.973z"/>
<path fill="#FAFBFB" d="M149.107,103.313c0,2.991-2.426,5.419-5.419,5.419H38.108c-2.993,0-5.419-2.428-5.419-5.419V51.076
	c0-2.991,2.426-5.418,5.419-5.418h105.579c2.994,0,5.419,2.427,5.419,5.418V103.313z"/>
<circle fill="#FAFBFB" cx="90.898" cy="117.066" r="3.357"/>
<path fill="#333333" d="M116.595,146.526l-7.708-4.343v-13.19h-35.48v12.909l-8.208,4.624c0,0-1.864,0.995-1.864,3.357h10.07
	l0.001-0.01v0.01h34.981h0.499h9.574C118.46,147.521,116.595,146.526,116.595,146.526z"/>
<path fill-rule="evenodd" clip-rule="evenodd" fill="#333333" d="M57.776,69.562c0.493-0.126,1.376-0.04,1.921-0.04
	c1.656,0,3.896-0.102,5.522,0.04c1.168,0.103,1.933,0.565,2.521,1.161c0.651,0.658,1.1,1.84,1,3.32
	c-0.259,3.86-3.443,5.769-8.003,5.643c-0.544-0.015-1.48-0.159-1.761,0c-0.372,0.211-0.662,1.771-0.8,2.32
	c-0.12,0.474-0.332,2.086-0.721,2.361c-0.312,0.222-1.024,0.12-1.681,0.12c-0.532,0-1.427,0.105-1.641-0.12
	c-0.292-0.307,0.08-1.364,0.2-1.881c0.872-3.756,1.796-7.62,2.641-11.284C57.123,70.567,57.12,69.731,57.776,69.562z M62.178,76.725
	c1.485-0.271,3.192-1.315,2.481-3.201c-0.387-1.026-1.975-1.466-3.521-1.281c-0.659,0.08-0.755,0.662-0.921,1.281
	c-0.258,0.968-0.522,1.97-0.52,3C60.381,76.98,61.391,76.869,62.178,76.725z"/>
<path fill-rule="evenodd" clip-rule="evenodd" fill="#333333" d="M96.671,69.562c0.042-0.009,0.011-0.001,0.041,0
	c1.055,0.038,2.247-0.033,3.481,0c1.905,0.053,3.947-0.208,5.243,0.399c1.2,0.565,2.115,1.772,2.12,3.522
	c0.013,4.362-3.463,6.379-8.003,6.202c-0.441-0.017-1.407-0.19-1.761,0c-0.46,0.247-0.613,1.587-0.8,2.32
	c-0.154,0.602-0.388,2.111-0.721,2.361c-0.302,0.228-1.117,0.12-1.681,0.12c-0.386,0-1.407,0.12-1.641-0.12
	c-0.28-0.287,0.082-1.407,0.201-1.921c0.89-3.831,1.761-7.569,2.641-11.324C95.946,70.463,95.882,69.725,96.671,69.562z
	 M102.753,76.044c0.647-0.505,1.164-1.64,0.64-2.681c-0.428-0.851-1.644-1.161-2.801-1.161c-0.327,0-0.875,0.015-1.12,0.201
	c-0.405,0.308-0.494,1.343-0.641,1.961c-0.174,0.731-0.445,1.407-0.32,2.2C99.785,77.127,101.855,76.746,102.753,76.044z"/>
<path fill-rule="evenodd" clip-rule="evenodd" fill="#333333" d="M125.642,70.082c-1.082,4.828-2.226,9.593-3.401,14.325
	c-0.98,0.147-2.183,0.074-3.201-0.04c-0.062-1.166,0.29-2.515,0.561-3.801c0.616-2.945,1.413-6.135,2.12-9.204
	c0.16-0.693,0.175-1.576,0.76-1.72c0.493-0.122,1.212,0,1.801,0C124.885,69.643,125.509,69.586,125.642,70.082z"/>
<path fill-rule="evenodd" clip-rule="evenodd" fill="#333333" d="M74.863,84.447c-0.071-0.291,0.012-0.72,0.04-1.04
	c-0.916,0.261-1.485,0.873-2.441,1.2c-1.613,0.553-3.882,0.139-4.562-1c-0.936-1.57-0.093-3.858,0.88-4.683
	c1.233-1.042,2.925-1.229,5.122-1.24c0.573-0.003,1.549,0.132,2-0.119c0.511-0.285,0.388-1.462,0.12-1.761
	c-0.333-0.373-1.097-0.397-1.681-0.4c-1.002-0.006-2.34,0.107-3.281,0.4c-0.253,0.078-0.594,0.341-0.88,0.16
	c-0.437-0.277-0.068-2.134,0.28-2.441c0.414-0.365,2.418-0.523,3.121-0.56c2.573-0.138,4.954,0.288,5.842,1.92
	c0.186,0.342,0.332,0.916,0.28,1.64c-0.101,1.396-0.466,2.415-0.801,3.962c-0.135,0.624-0.25,1.284-0.4,1.961
	c-0.114,0.521-0.22,1.555-0.521,1.841C77.433,84.813,75.804,84.446,74.863,84.447z M71.062,80.526
	c-0.456,1.165,0.355,1.957,1.24,2.04c2.214,0.207,3.55-1.202,3.202-3.24C73.814,79.211,71.554,79.27,71.062,80.526z"/>
<path fill-rule="evenodd" clip-rule="evenodd" fill="#333333" d="M85.907,80.126c0.393-0.099,0.468-0.562,0.641-0.84
	c1.259-2.034,2.608-4.213,3.961-6.202c0.465-0.14,1.15-0.12,1.801-0.12c0.631,0,1.315-0.097,1.681,0.199
	c0.086,0.448-0.283,0.784-0.48,1.121c-2.627,4.479-5.314,8.916-8.123,13.364c-0.354,0.561-0.883,1.715-1.4,1.881
	c-0.398,0.128-1.113,0-1.681,0c-0.637,0-1.229,0.083-1.641-0.119c0.104-1.01,0.684-1.526,1.161-2.281
	c0.188-0.297,0.437-0.662,0.68-1.04c0.215-0.334,0.525-0.783,0.561-1.161c0.034-0.355-0.179-0.918-0.28-1.441
	c-0.495-2.565-0.912-4.857-1.4-7.482c-0.128-0.688-0.639-2.58-0.08-2.92c0.246-0.15,0.746-0.063,1.121-0.08
	c0.615-0.029,1.644-0.14,2,0.159c0.333,0.279,0.336,1.038,0.44,1.681c0.195,1.211,0.392,2.396,0.601,3.642
	C85.568,79.088,85.615,79.72,85.907,80.126z"/>
<path fill-rule="evenodd" clip-rule="evenodd" fill="#333333" d="M113.598,84.487c-0.121-0.342,0.039-0.729,0-1.12
	c-1.042,0.321-1.69,1.029-2.681,1.319c-1.332,0.392-2.977,0.134-3.761-0.479c-1.411-1.103-0.985-3.958,0.08-5.042
	c1.612-1.643,4.592-1.382,7.403-1.601c0.484-0.48,0.401-1.562-0.04-1.882c-0.468-0.336-1.499-0.3-2.321-0.239
	c-0.75,0.055-1.689,0.146-2.36,0.32c-0.35,0.091-0.775,0.396-1.041,0.239c-0.469-0.276,0.04-2.332,0.4-2.561
	c0.469-0.298,2.425-0.445,3.161-0.479c2.338-0.111,4.678,0.2,5.643,1.84c0.226,0.386,0.375,0.982,0.319,1.761
	c-0.101,1.402-0.478,2.355-0.8,3.921c-0.132,0.644-0.252,1.293-0.4,1.961c-0.112,0.506-0.214,1.559-0.521,1.841
	C116.128,84.797,114.669,84.419,113.598,84.487z M110.036,80.205c-0.373,0.484-0.401,1.477,0.04,1.962
	c0.64,0.701,2.739,0.446,3.441-0.161c0.717-0.618,0.92-1.703,0.801-2.68C112.913,79.176,110.754,79.274,110.036,80.205z"/>
</svg>
