<?xml version="1.0" encoding="utf-8"?>
<!-- Generator: Adobe Illustrator 15.0.2, SVG Export Plug-In  -->
<!DOCTYPE svg PUBLIC "-//W3C//DTD SVG 1.1//EN" "http://www.w3.org/Graphics/SVG/1.1/DTD/svg11.dtd" [
	<!ENTITY ns_flows "http://ns.adobe.com/Flows/1.0/">
]>
<svg version="1.1"
	 xmlns="http://www.w3.org/2000/svg" xmlns:xlink="http://www.w3.org/1999/xlink" xmlns:a="http://ns.adobe.com/AdobeSVGViewerExtensions/3.0/"
	 x="0px" y="0px" width="200px" height="200px" viewBox="-5.932 -9.639 200 200"
	 overflow="visible" enable-background="new -5.932 -9.639 200 200" xml:space="preserve">
<defs>
</defs>
<g>
	<defs>
		<circle id="SVGID_2_" cx="94.068" cy="91.5" r="91.5"/>
	</defs>
	<clipPath id="SVGID_4_">
		<use xlink:href="#SVGID_2_"  overflow="visible"/>
	</clipPath>
	<circle clip-path="url(#SVGID_4_)" fill="#969696" cx="94.068" cy="91.5" r="91.5"/>
	<rect x="0.265" y="54.353" clip-path="url(#SVGID_4_)" fill="#E6E6E6" width="186.055" height="74.333"/>
	<path clip-path="url(#SVGID_4_)" fill="#FAFBFB" stroke="#D0D1D3" stroke-width="3" stroke-miterlimit="10" d="M278.072,99.927
		c0,3.301-2.675,5.977-5.976,5.977H39.334c-3.301,0-5.977-2.676-5.977-5.977V83.987c0-3.3,2.676-5.976,5.977-5.976h232.761
		c3.301,0,5.976,2.676,5.976,5.976V99.927z"/>
	<g clip-path="url(#SVGID_4_)">
		<circle fill="#969696" cx="47.651" cy="89.962" r="5.345"/>
		<circle fill="#FFFFFF" cx="47.651" cy="89.962" r="3.665"/>
		<g>
			<line fill="#969696" x1="51.316" y1="93.626" x2="56.909" y2="99.219"/>
			<path fill="#969696" d="M56.909,100.136c-0.233,0-0.469-0.089-0.647-0.269l-5.593-5.593c-0.358-0.357-0.358-0.939,0-1.296
				c0.358-0.357,0.938-0.357,1.295,0l5.593,5.594c0.358,0.356,0.358,0.938,0,1.295C57.378,100.047,57.144,100.136,56.909,100.136z"
				/>
		</g>
	</g>
	<g clip-path="url(#SVGID_4_)">
		<rect x="70.831" y="86.408" fill="none" width="128.591" height="17.644"/>
		<text transform="matrix(1 0 0 1 70.8301 95.8145)" fill="#D5C53B" font-family="'OpenSans-Bold'" font-size="12.3785">give.ibethel.org</text>
	</g>
	
		<line clip-path="url(#SVGID_4_)" fill="#969696" stroke="#969696" stroke-width="1.5" stroke-miterlimit="10" x1="169.865" y1="84.616" x2="169.865" y2="99.219"/>
	<circle clip-path="url(#SVGID_4_)" fill="#969696" cx="5.333" cy="66.35" r="5.333"/>
	<circle clip-path="url(#SVGID_4_)" fill="#969696" cx="21.674" cy="66.35" r="5.333"/>
	<path clip-path="url(#SVGID_4_)" fill="none" stroke="#D0D1D3" stroke-width="3" stroke-miterlimit="10" d="M21.813,95.952
		c-1.131,1.309-2.802,2.136-4.667,2.136c-3.405,0-6.166-2.761-6.166-6.165c0-3.406,2.76-6.166,6.166-6.166
		c1.616,0,3.087,0.621,4.187,1.639"/>
	<polygon clip-path="url(#SVGID_4_)" fill="#D0D1D3" points="20.969,87.564 23.635,84.898 23.784,87.713 23.931,90.526 
		21.117,90.379 18.303,90.231 	"/>
</g>
</svg>
